<svg xmlns="http://www.w3.org/2000/svg" viewBox="0 0 100 100" fill="none">
  <circle cx="50" cy="50" r="46" stroke="#C9A227" stroke-width="1.4" opacity="0.85" />
  <circle cx="50" cy="50" r="42" stroke="#C9A227" stroke-width="0.5" opacity="0.4" stroke-dasharray="2 2" />
  <path d="M50 14 C47 20, 42 22, 50 28 C58 22, 53 20, 50 14 Z" fill="#C9A227" opacity="0.95" />
  <path d="M41 19 C42 23, 46 25, 48 27 C42 26, 38 23, 41 19 Z" fill="#C9A227" opacity="0.65" />
  <path d="M59 19 C58 23, 54 25, 52 27 C58 26, 62 23, 59 19 Z" fill="#C9A227" opacity="0.65" />
  <path d="M30 68 V38 L43 53 L56 38 V68" stroke="#C9A227" stroke-width="2.6" stroke-linecap="round" stroke-linejoin="round" />
  <path d="M56 38 H64 C72 38, 76 44, 76 53 C76 62, 72 68, 64 68 H56" stroke="#C9A227" stroke-width="2.6" stroke-linecap="round" stroke-linejoin="round" />
  <circle cx="50" cy="78" r="1.6" fill="#C9A227" />
</svg>
