<svg xmlns="http://www.w3.org/2000/svg" viewBox="0 0 340 80" fill="none">
  <!-- Monogram Icon on Left -->
  <g transform="translate(10, 8) scale(0.64)">
    <circle cx="50" cy="50" r="46" stroke="#C9A227" stroke-width="1.5" />
    <circle cx="50" cy="50" r="42" stroke="#C9A227" stroke-width="0.5" opacity="0.5" stroke-dasharray="2 2" />
    <path d="M50 14 C47 20, 42 22, 50 28 C58 22, 53 20, 50 14 Z" fill="#C9A227" />
    <path d="M41 19 C42 23, 46 25, 48 27 C42 26, 38 23, 41 19 Z" fill="#C9A227" opacity="0.7" />
    <path d="M59 19 C58 23, 54 25, 52 27 C58 26, 62 23, 59 19 Z" fill="#C9A227" opacity="0.7" />
    <path d="M30 68 V38 L43 53 L56 38 V68" stroke="#C9A227" stroke-width="2.8" stroke-linecap="round" stroke-linejoin="round" fill="none" />
    <path d="M56 38 H64 C72 38, 76 44, 76 53 C76 62, 72 68, 64 68 H56" stroke="#C9A227" stroke-width="2.8" stroke-linecap="round" stroke-linejoin="round" fill="none" />
    <circle cx="50" cy="78" r="1.8" fill="#C9A227" />
  </g>
  <!-- Typography -->
  <text x="86" y="44" font-family="'Playfair Display', serif" font-size="26" font-weight="600" letter-spacing="0.12em" fill="#1A1A1A">MAISON DEVAM</text>
  <line x1="88" y1="52" x2="310" y2="52" stroke="#C9A227" stroke-width="0.7" opacity="0.6" />
  <text x="122" y="66" font-family="'Inter', sans-serif" font-size="9" font-weight="300" letter-spacing="0.32em" fill="#C9A227" opacity="0.9">LUXURY • BEAUTY • SERENITY</text>
</svg>
